<?xml version="1.0" encoding="iso-8859-1"?>
<!-- Generator: Adobe Illustrator 18.1.1, SVG Export Plug-In . SVG Version: 6.00 Build 0)  -->
<svg version="1.1" id="Capa_1" xmlns="http://www.w3.org/2000/svg" xmlns:xlink="http://www.w3.org/1999/xlink" x="0px" y="0px"
	 viewBox="0 0 386 386.002" style="enable-background:new 0 0 386 386.002;" xml:space="preserve">
<g>
	<path d="M148.082,141.53c-2.204,3.622-4.286,7.044-6.496,11.049c-1.285,2.327-2.673,4.573-4.016,6.745
		c-1.426,2.306-2.772,4.483-3.996,6.736c-3.368,6.205-7.035,12.305-10.582,18.203l-0.292,0.486c-1.281,2.248-2.556,4.499-3.829,6.75
		c-2.758,4.873-5.611,9.913-8.5,14.842c-6.111,10.409-11.744,19.401-17.222,27.495c-0.556,0.821-1.094,1.651-1.63,2.496l6.804,4.466
		c3.917,2.57,7.857,5.155,11.79,7.738c21.676-38.975,39.497-70.137,57.166-99.962c-5.659-3.564-11.322-7.13-16.984-10.694
		C149.544,139.128,148.807,140.339,148.082,141.53z"/>
	<path d="M203.705,184.147c-6.623,0.009-12.738,0.016-19.27,0.016c-5.294,0-10.861-0.005-17.195-0.019
		c-2.396,4.402-4.853,8.842-7.234,13.143c-1.178,2.129-2.357,4.257-3.531,6.388c13.009-0.002,24.989-0.009,36.982-0.016
		c11.96-0.007,23.935-0.014,36.956-0.016c-3.882-6.333-7.796-12.974-11.498-19.512C213.367,184.136,208.408,184.142,203.705,184.147
		z"/>
	<path d="M262.458,181.994l0.005-0.003c-2.185-3.014-6.915-11.293-21.282-36.443c-3.419-5.984-6.371-11.152-8.023-13.996
		l-3.183-5.481c-3.496-6.019-7.111-12.242-10.647-18.382c-1.555-2.7-3.094-5.412-4.632-8.124c-1.845-3.253-3.754-6.616-5.656-9.895
		l-1.671-2.889c-2.909-5.031-5.917-10.234-9.034-15.198c-0.989-1.575-2.262-2.374-3.785-2.374c-0.858,0-1.781,0.242-2.744,0.719
		c-1.267,0.627-2.526,1.357-3.859,2.13c-1.146,0.665-2.331,1.353-3.572,2c-3.364,1.763-4.094,3.543-3.947,5.767
		c0.226,0.641,0.355,1.221,0.459,1.687c0.035,0.157,0.081,0.362,0.113,0.482c1.991,3.294,3.903,6.577,5.753,9.752
		c6.428,11.041,12.914,22.288,19.186,33.165c14.456,25.065,29.39,50.963,44.651,76.127c5.718-3.183,11.442-6.369,17.149-9.546
		C265.411,186.991,262.497,182.06,262.458,181.994z"/>
	<path d="M97.985,191.512c1.351-2.467,2.769-4.913,4.177-7.309c-1.173-0.004-2.313-0.008-3.441-0.011
		c-4.809-0.015-9.388-0.029-15.333-0.036c-6.517-0.014-13.241-0.02-19.839-0.024c0.011,5.389,0.031,13.889,0.049,19.389l0.936,0.003
		c9.222,0.028,16.615,0.052,26.318,0.086c1.235-2.345,2.606-4.566,3.942-6.729C95.931,195.04,97.005,193.301,97.985,191.512z"/>
	<path d="M77.791,277.165c-0.455,1.753-0.917,3.518-1.38,5.277c7.65-6.938,15.325-13.896,23.099-20.943
		c-2.489-1.652-4.996-3.318-7.502-4.984c-2.461-1.637-4.921-3.272-7.362-4.893c-1.241,5.287-2.701,10.491-4.123,15.561
		C79.606,270.457,78.657,273.842,77.791,277.165z"/>
	<path d="M175.128,134.475c0.244-0.395,0.486-0.786,0.726-1.175c1.923-3.111,3.911-6.328,5.571-9.513
		c0.896-1.728,1.37-3.537,1.23-4.716c-0.064-0.545-0.244-0.801-0.394-0.963c-3.557-3.851-8.362-5.998-12.594-7.59
		c-0.512-0.193-0.999-0.291-1.45-0.291c-1.705,0.001-3.102,1.445-3.975,2.657c-1.884,2.618-3.399,5.53-5.004,8.612
		c-0.442,0.85-0.894,1.719-1.36,2.591c3.23,1.944,6.433,3.873,9.643,5.807C170.046,131.415,172.577,132.938,175.128,134.475z"/>
	<path d="M279.188,211.044c-1.119-1.92-2.267-3.888-3.371-5.9c-4.194,2.481-8.436,4.927-12.56,7.304
		c-1.573,0.906-3.146,1.813-4.717,2.723c-0.095,0.055-0.19,0.11-0.287,0.165c0.043,0.075,0.086,0.149,0.128,0.222l2.949,5.095
		c2.293,3.958,4.65,8.029,6.978,12.083c3.272-1.918,6.566-3.835,9.775-5.701c2.548-1.482,5.097-2.965,7.642-4.453
		c-0.729-1.161-1.445-2.357-2.092-3.609C282.261,216.315,280.769,213.755,279.188,211.044z"/>
	<path d="M295.824,237.559c-0.986-0.692-1.864-1.042-2.612-1.042c-0.636,0-1.333,0.24-2.128,0.732
		c-3.089,1.91-6.256,3.725-9.318,5.479c-0.964,0.552-1.929,1.105-2.891,1.661c-2.763,1.597-3.063,2.618-2.606,5.08
		c1.367,7.383,5.237,13.263,11.833,17.978c1.347,0.964,2.759,1.863,4.253,2.817c1.292,0.825,2.628,1.677,3.948,2.591
		c4.645,3.225,8.08,7.224,10.266,11.935c1.452-4.339,1.89-8.91,2.095-13.323c-0.074-6.544-0.65-15.005-4.372-22.692
		C302.373,244.818,299.866,240.389,295.824,237.559z"/>
	<path d="M313.271,183.436c-1.502-0.004-3.004-0.009-4.506-0.01l-7.079-0.003l-6.984-0.003c-3.18,0-6.33,0.003-9.771,0.011
		c0.134,0.238,0.268,0.475,0.401,0.713c3.762,6.693,7.647,13.605,11.424,20.461c7.156-0.04,12.589-0.044,18.837-0.048
		c2.13-0.001,4.338-0.003,6.722-0.006l0.077-12.841l0.05-8.28c-1.333,0.011-2.759,0.017-4.354,0.017
		C316.482,183.446,314.877,183.441,313.271,183.436z"/>
	<path d="M192.998,0C86.579,0,0,86.58,0,193c0,106.422,86.579,193.002,192.998,193.002C299.42,386.002,386,299.422,386,193
		C386,86.58,299.42,0,192.998,0z M152.833,122.904c2.389-4.348,4.432-8.883,7.352-12.941c2.124-2.951,4.906-4.736,8.032-4.736
		c1.037,0,2.111,0.196,3.212,0.611c5.346,2.012,10.496,4.537,14.51,8.881c1.008,1.094,1.522,2.395,1.682,3.766
		c0.305,2.58-0.62,5.414-1.762,7.613c-2.541,4.875-5.639,9.539-8.459,14.262c-0.176,0.297-0.422,0.721-0.586,0.965
		c-8.313-5-16.305-9.822-24.549-14.779C151.253,125.055,152.317,123.855,152.833,122.904z M58.89,208.348
		c-0.469-0.713-0.279-1.523-0.283-2.295c-0.027-7.174-0.067-25.795-0.067-26.924c8.173,0.006,16.681,0.01,24.854,0.027
		c10.184,0.012,16.363,0.045,26.547,0.066c0.229,0.053,0.435,0.045,0.52,0.291c0.079,0.328-0.074,0.576-0.242,0.852
		c-2.625,4.514-5.343,8.977-7.848,13.549c-2.537,4.631-5.648,8.922-7.932,13.691c-0.357,0.735-0.881,1.012-1.688,1.012
		c-0.006,0-0.011,0-0.017,0c-12.477-0.045-20.955-0.07-33.438-0.109C59.166,208.508,59.036,208.408,58.89,208.348z M72.886,292.389
		c-0.85,0.77-1.692,1.545-2.547,2.311c-0.357,0.324-0.733,0.685-1.191,0.685c-0.158,0-0.326-0.043-0.506-0.146
		c-0.726-0.414-0.504-1.096-0.334-1.727c1.551-5.871,3.121-11.732,4.645-17.607c2.605-10,5.76-19.854,7.832-29.99
		c0.152-0.758,0.26-1.506,0.535-2.496c8.604,5.691,17.654,11.736,26.312,17.467C95.876,271.541,84.382,281.963,72.886,292.389z
		 M84.694,237.834c1.496-2.404,2.82-4.594,4.315-6.801c6.004-8.871,11.627-17.986,17.049-27.221
		c4.19-7.148,8.221-14.387,12.328-21.59c3.685-6.131,7.379-12.256,10.795-18.549c2.5-4.602,5.496-8.926,8.027-13.51
		c3.751-6.799,7.186-12.025,11.053-18.656c0.222-0.125,0.41-0.175,0.581-0.175c0.447,0,0.776,0.338,1.29,0.536
		c7.031,4.426,14.067,8.855,21.1,13.285c0.844,0.533,2.26,1.34,2.4,1.789c0.111,0.359,0.051,0.635-0.137,0.951
		c-21.367,35.975-41.217,71.014-61.627,107.777C102.784,249.701,93.614,243.691,84.694,237.834z M148.269,208.676
		c0.81-1.701,1.08-2.416,1.672-3.492c4.432-8.092,8.949-16.137,13.352-24.246c0.711-1.306,1.491-1.795,2.981-1.795
		c0.003,0,0.006,0,0.009,0c6.733,0.016,12.594,0.021,18.152,0.021c11.442,0,21.604-0.022,35.463-0.032
		c1.107,0,1.973,0.057,2.646,1.26c4.758,8.447,9.945,17.199,15.098,25.428c0.518,0.824,0.805,1.789,1.262,2.824
		C206.149,208.643,180.845,208.676,148.269,208.676z M247.468,205.523c-22.322-36.713-43.418-74.137-65.033-111.262
		c-1.912-3.283-3.824-6.564-5.789-9.812c-0.65-1.07-0.584-2.332-1.119-3.414c-0.678-5.441,1.908-8.984,6.535-11.408
		c2.541-1.328,4.957-2.906,7.527-4.18c1.673-0.829,3.355-1.238,4.963-1.238c3.176,0,6.062,1.598,8.019,4.715
		c3.756,5.98,7.252,12.125,10.795,18.236c3.475,5.988,6.844,12.037,10.297,18.033c4.586,7.963,9.209,15.902,13.82,23.848
		c5.928,10.209,28.42,50.014,29.277,50.406c0,0,5.283,8.926,7.535,14.117c-8.38,4.666-16.81,9.359-25.215,14.035
		C248.161,207.111,247.901,206.24,247.468,205.523z M266.98,239.015c-0.71,0-1.16-0.566-1.643-1.409
		c-3.734-6.531-7.518-13.033-11.283-19.545c-2.637-4.559-2.633-4.553,1.982-7.219c6.451-3.732,12.924-7.42,19.322-11.242
		c0.703-0.42,1.276-0.642,1.773-0.642c0.76,0,1.338,0.519,1.923,1.638c2.836,5.451,6.194,10.611,9.023,16.082
		c1.021,1.979,2.303,3.902,3.529,5.811c0.268,0.42,0.469,0.881,0.584,1.107c0.283,1.152-0.562,1.324-1.035,1.6
		c-7.643,4.488-15.33,8.91-22.965,13.41C267.708,238.889,267.315,239.015,266.98,239.015z M308.5,292.562
		c-0.633,1.066-1.114,2.691-2.547,2.691c-0.068,0-0.138-0.004-0.21-0.012c-1.801-0.189-1.734-2.039-2.039-3.396
		c-1.426-6.338-4.975-11.219-10.248-14.881c-2.713-1.879-5.581-3.533-8.262-5.451c-7.332-5.24-12.189-12.205-13.842-21.133
		c-0.906-4.883,0.736-7.846,5.022-10.322c4.039-2.332,8.112-4.609,12.077-7.061c1.628-1.008,3.21-1.481,4.759-1.481
		c1.865,0,3.683,0.685,5.481,1.946c4.732,3.314,7.652,8.086,10.1,13.133c3.865,7.982,4.787,16.57,4.873,24.959
		C313.319,279.133,312.276,286.199,308.5,292.562z M327.302,206.732c-0.006,0.844-0.002,1.691-0.002,2.352
		c-0.574,0.412-1.084,0.487-1.559,0.487c-0.272,0-0.532-0.024-0.785-0.024c-11.049,0.02-18.098-0.002-29.146,0.064
		c-0.016,0-0.031,0-0.046,0c-1.46,0-2.213-0.461-2.938-1.779c-5.211-9.473-10.537-18.883-15.825-28.314
		c-0.127-0.994,0.243-1.219,0.713-1.219c0.388,0,0.845,0.152,1.151,0.152c0.002,0,0.005,0,0.008,0
		c6.006-0.025,10.882-0.031,15.83-0.031c4.358,0,8.772,0.005,14.064,0.006c3.107,0.001,6.214,0.021,9.32,0.021
		c2.327,0,4.653-0.011,6.98-0.048c0.043-0.001,0.085-0.001,0.127-0.001c1.512,0,2.309,0.456,2.265,2.081
		C327.407,189.23,327.353,197.982,327.302,206.732z"/>
</g>
<g>
</g>
<g>
</g>
<g>
</g>
<g>
</g>
<g>
</g>
<g>
</g>
<g>
</g>
<g>
</g>
<g>
</g>
<g>
</g>
<g>
</g>
<g>
</g>
<g>
</g>
<g>
</g>
<g>
</g>
</svg>
